<svg width="14" height="14" viewBox="0 0 14 14" fill="none" xmlns="http://www.w3.org/2000/svg">
<g id="Brand-icon/metamask" clip-path="url(#clip0_575_19960)">
<g id="Vector">
<path d="M13.6741 0.583313L7.66801 4.92948L8.78489 2.36816L13.6741 0.583313Z" fill="#E17726"/>
<path d="M0.339716 0.588449L5.21585 2.36849L6.27636 4.96339L0.339716 0.588449ZM11.257 9.82642L13.9116 9.87583L12.9838 12.9581L9.74462 12.0859L11.257 9.82642ZM2.74265 9.82642L4.24938 12.0859L1.01563 12.9581L0.0935059 9.87583L2.74265 9.82642Z" fill="#E27625"/>
<path d="M6.13225 4.30241L6.24072 7.72907L2.99451 7.58465L3.91789 6.22228L3.92959 6.20918L6.13225 4.30241ZM7.83395 4.26418L10.0702 6.20929L10.0818 6.22233L11.0052 7.5847L7.7597 7.72907L7.83395 4.26418ZM4.34453 9.83636L6.11705 11.187L4.05803 12.1592L4.34453 9.83636ZM9.65562 9.83615L9.93617 12.1592L7.88289 11.1869L9.65562 9.83615Z" fill="#E27625"/>
<path d="M7.92816 11.0597L10.0117 12.0464L8.0736 12.9472L8.09372 12.3518L7.92816 11.0597ZM6.07095 11.0601L5.9119 12.3421L5.92497 12.9465L3.9823 12.0464L6.07095 11.0601Z" fill="#D5BFB2"/>
<path d="M5.46927 8.17631L6.01374 9.29538L4.16003 8.76429L5.46927 8.17631ZM8.53035 8.17642L9.84577 8.76429L7.98599 9.29522L8.53035 8.17642Z" fill="#233447"/>
<path d="M4.48601 9.82492L4.18639 12.2333L2.58036 9.87759L4.48601 9.82492ZM9.51355 9.82498L11.4193 9.87759L9.80722 12.2334L9.51355 9.82498ZM11.0519 7.44845L9.66506 8.83077L8.59574 8.35288L8.0838 9.40543L7.7482 7.59545L11.0519 7.44845ZM2.94681 7.44845L6.2512 7.59545L5.91554 9.40543L5.40349 8.35304L4.33986 8.83082L2.94681 7.44845Z" fill="#CC6228"/>
<path d="M2.85352 7.16478L4.42263 8.72195L4.47698 10.2592L2.85352 7.16478ZM11.1478 7.162L9.52141 10.2619L9.58265 8.72195L11.1478 7.162ZM6.17464 7.25964L6.23779 7.64839L6.39384 8.61682L6.29351 11.5912L5.81919 9.20181L5.81902 9.1771L6.17464 7.25964ZM7.8243 7.25424L8.18084 9.1771L8.18068 9.20181L7.70515 11.5972L7.61215 8.59918L7.8243 7.25424Z" fill="#E27525"/>
<path d="M9.72212 8.66008L9.66903 9.99571L8.01375 11.257L7.67912 11.0257L8.05421 9.1363L9.72212 8.66008ZM4.28337 8.66008L5.94549 9.1363L6.32057 11.0257L5.98595 11.257L4.33061 9.9956L4.28337 8.66008Z" fill="#F5841F"/>
<path d="M3.66557 11.7514L5.78331 12.7327L5.77434 12.3137L5.95155 12.1616H8.04753L8.23114 12.3131L8.21758 12.7319L10.3219 11.7539L9.29794 12.5814L8.05978 13.4131H5.93455L4.69721 12.578L3.66557 11.7514Z" fill="#C0AC9D"/>
<path d="M7.7765 10.9291L8.07591 11.136L8.25137 12.5051L7.99745 12.2954H6.00305L5.75395 12.5093L5.92366 11.1361L6.22318 10.9291H7.7765Z" fill="#161616"/>
<path d="M13.2775 0.703627L13.9985 2.81883L13.5482 4.95756L13.8688 5.19941L13.435 5.52313L13.7611 5.76943L13.3293 6.15394L13.5944 6.34169L12.8909 7.14516L10.0056 6.32356L9.98062 6.31046L7.90142 4.59518L13.2775 0.703627ZM0.722189 0.703627L6.09834 4.59518L4.01909 6.31046L3.99411 6.32356L1.10881 7.14516L0.405337 6.34169L0.670192 6.15411L0.238682 5.76943L0.564119 5.5234L0.123751 5.19877L0.45646 4.95676L0.0012207 2.81894L0.722189 0.703627Z" fill="#763E1A"/>
<path d="M9.86446 6.14389L12.9216 7.01436L13.9148 10.0081H11.2945L9.48905 10.0303L10.8021 7.52737L9.86446 6.14389ZM4.1352 6.14389L3.19744 7.52737L4.51061 10.0303L2.706 10.0081H0.0903727L1.078 7.01442L4.1352 6.14389ZM8.93451 2.35388L8.07942 4.6125L7.89795 7.66362L7.82851 8.61997L7.82299 11.063H6.17661L6.17126 8.62457L6.1016 7.66282L5.92007 4.6125L5.06509 2.35388H8.93451Z" fill="#F5841F"/>
</g>
</g>
<defs>
<clipPath id="clip0_575_19960">
<rect width="14" height="14" fill="white"/>
</clipPath>
</defs>
</svg>
